<svg width="196" height="130" viewBox="0 0 196 130" fill="none" xmlns="http://www.w3.org/2000/svg">
<path d="M172.032 109.527L137.229 63.4567C136.783 62.8593 135.913 62.848 135.445 63.4229L122.59 78L144.777 107.667C145.875 109.132 147.572 110 149.366 110H171.803C172.043 110 172.173 109.718 172.032 109.527Z" fill="white"/>
<path d="M172.032 109.527L137.229 63.4567C136.783 62.8593 135.913 62.848 135.445 63.4229L122.59 78L144.777 107.667C145.875 109.132 147.572 110 149.366 110H171.803C172.043 110 172.173 109.718 172.032 109.527Z" fill="url(#paint0_linear_1512_1856)"/>
<path d="M20.3638 38.7581C35.569 38.3521 47.1863 44.0604 53.6488 58.5222C53.9297 59.1431 54.7294 59.167 55.032 58.546C58.2741 51.9421 61.5486 45.2546 64.9959 38.2446C65.1472 37.9341 65.1148 37.5401 64.9095 37.2654C58.501 28.7985 50.1041 22.5051 39.8485 19.5077C26.9343 15.722 13.7068 17.37 0.576469 17.2864C0.414367 17.2864 0.252251 17.5969 0.0901489 17.7522V37.8864C0.0901489 38.3641 0.435969 38.7462 0.868242 38.7462L20.3638 38.7581Z" fill="#F3F6FB"/>
<path d="M20.3638 38.7581C35.569 38.3521 47.1863 44.0604 53.6488 58.5222C53.9297 59.1431 54.7294 59.167 55.032 58.546C58.2741 51.9421 61.5486 45.2546 64.9959 38.2446C65.1472 37.9341 65.1148 37.5401 64.9095 37.2654C58.501 28.7985 50.1041 22.5051 39.8485 19.5077C26.9343 15.722 13.7068 17.37 0.576469 17.2864C0.414367 17.2864 0.252251 17.5969 0.0901489 17.7522V37.8864C0.0901489 38.3641 0.435969 38.7462 0.868242 38.7462L20.3638 38.7581Z" fill="url(#paint1_linear_1512_1856)"/>
<path d="M18.7503 35.5801H0.000305176V90.8801H18.7503V35.5801Z" fill="#F3F6FB"/>
<g filter="url(#filter0_ddd_1512_1856)">
<path d="M96.0902 69.1649C88.1019 69.1649 80.4723 69.3056 72.8548 69.0946C70.1043 69.0126 68.9085 69.9855 68.1551 72.4119C64.161 85.2826 56.3162 95.4103 44.9676 102.889C44.3697 103.287 43.8674 103.674 43.4609 104.096C43.2217 104.342 43.0901 104.659 43.0901 104.987V109.09H64.9144V90.3465H96.0782V69.1649H96.0902Z" fill="#F3F6FB"/>
</g>
<path d="M96.0902 69.1649C88.1019 69.1649 80.4723 69.3056 72.8548 69.0946C70.1043 69.0126 68.9085 69.9855 68.1551 72.4119C64.161 85.2826 56.3162 95.4103 44.9676 102.889C44.3697 103.287 43.8674 103.674 43.4609 104.096C43.2217 104.342 43.0901 104.659 43.0901 104.987V109.09H64.9144V90.3465H96.0782V69.1649H96.0902Z" fill="url(#paint2_linear_1512_1856)"/>
<path d="M114.35 38.0898H95.41V108.79H114.35V38.0898Z" fill="#F3F6FB"/>
<path d="M32.0901 128.94V120.21H37.9702V121.73H33.9301V123.81H37.6602V125.33H33.9301V127.41H37.9901V128.93H32.0901V128.94Z" fill="#F3F6FB"/>
<path d="M50.2301 120.21L51.9901 123.18H52.0602L53.8301 120.21H55.9101L53.2501 124.57L55.9701 128.93H53.8501L52.0602 125.95H51.9901L50.2001 128.93H48.0901L50.8201 124.57L48.1401 120.21H50.2301Z" fill="#F3F6FB"/>
<path d="M66.0904 128.94V120.21H69.5304C70.1904 120.21 70.7604 120.34 71.2204 120.59C71.6904 120.84 72.0404 121.19 72.2904 121.63C72.5404 122.07 72.6604 122.59 72.6604 123.17C72.6604 123.75 72.5404 124.26 72.2804 124.7C72.0304 125.14 71.6704 125.49 71.2004 125.74C70.7304 125.99 70.1604 126.11 69.4904 126.11H67.2904V124.63H69.1904C69.5504 124.63 69.8404 124.57 70.0704 124.45C70.3004 124.33 70.4804 124.15 70.5904 123.93C70.7004 123.71 70.7604 123.46 70.7604 123.17C70.7604 122.88 70.7004 122.63 70.5904 122.41C70.4704 122.19 70.3004 122.02 70.0704 121.9C69.8404 121.78 69.5404 121.72 69.1804 121.72H67.9404V128.94H66.0904V128.94Z" fill="#F3F6FB"/>
<path d="M83.0902 128.94V120.21H86.5302C87.1902 120.21 87.7502 120.33 88.2202 120.56C88.6902 120.79 89.0402 121.13 89.2902 121.55C89.5402 121.97 89.6602 122.48 89.6602 123.06C89.6602 123.64 89.5402 124.14 89.2802 124.55C89.0202 124.96 88.6702 125.29 88.2002 125.51C87.7302 125.73 87.1602 125.84 86.4902 125.84H84.1802V124.36H86.1902C86.5402 124.36 86.8302 124.31 87.0702 124.22C87.3002 124.12 87.4802 123.98 87.5902 123.79C87.7002 123.6 87.7602 123.36 87.7602 123.07C87.7602 122.78 87.7002 122.54 87.5902 122.34C87.4702 122.14 87.3002 121.99 87.0702 121.89C86.8402 121.79 86.5402 121.73 86.1902 121.73H84.9502V128.95H83.0902V128.94ZM87.8102 124.97L89.9802 128.94H87.9402L85.8202 124.97H87.8102Z" fill="#F3F6FB"/>
<path d="M100.09 128.94V120.21H105.97V121.73H101.93V123.81H105.66V125.33H101.93V127.41H105.98V128.93H100.09V128.94Z" fill="#F3F6FB"/>
<path d="M138.1 122.72C138.07 122.38 137.92 122.11 137.66 121.92C137.4 121.73 137.05 121.63 136.61 121.63C136.31 121.63 136.06 121.67 135.85 121.75C135.64 121.83 135.48 121.95 135.38 122.1C135.28 122.25 135.22 122.42 135.22 122.6C135.21 122.76 135.25 122.89 135.32 123.01C135.39 123.13 135.49 123.23 135.62 123.31C135.75 123.39 135.9 123.47 136.06 123.53C136.23 123.59 136.41 123.64 136.6 123.69L137.38 123.88C137.76 123.97 138.11 124.08 138.43 124.22C138.75 124.36 139.02 124.54 139.26 124.74C139.49 124.95 139.67 125.19 139.8 125.47C139.93 125.75 140 126.07 140 126.44C140 126.97 139.86 127.44 139.59 127.83C139.32 128.22 138.94 128.52 138.43 128.74C137.93 128.95 137.32 129.06 136.61 129.06C135.9 129.06 135.29 128.95 134.77 128.74C134.25 128.53 133.84 128.2 133.55 127.78C133.26 127.36 133.11 126.83 133.09 126.2H134.88C134.9 126.49 134.98 126.74 135.13 126.93C135.28 127.12 135.48 127.27 135.73 127.37C135.98 127.47 136.27 127.52 136.58 127.52C136.89 127.52 137.16 127.47 137.4 127.38C137.63 127.29 137.81 127.16 137.94 127C138.07 126.84 138.13 126.65 138.13 126.44C138.13 126.24 138.07 126.08 137.96 125.95C137.85 125.82 137.68 125.7 137.46 125.61C137.24 125.52 136.97 125.43 136.65 125.35L135.7 125.11C134.96 124.93 134.38 124.65 133.96 124.27C133.53 123.89 133.32 123.38 133.32 122.73C133.32 122.2 133.46 121.74 133.74 121.34C134.03 120.95 134.42 120.64 134.92 120.42C135.42 120.2 135.99 120.09 136.63 120.09C137.28 120.09 137.84 120.2 138.33 120.42C138.81 120.64 139.19 120.95 139.46 121.34C139.73 121.74 139.87 122.19 139.88 122.71H138.1V122.72Z" fill="#F3F6FB"/>
<path d="M121.1 122.72C121.07 122.38 120.92 122.11 120.66 121.92C120.4 121.73 120.05 121.63 119.61 121.63C119.31 121.63 119.06 121.67 118.85 121.75C118.64 121.83 118.48 121.95 118.38 122.1C118.28 122.25 118.22 122.42 118.22 122.6C118.21 122.76 118.25 122.89 118.32 123.01C118.39 123.13 118.49 123.23 118.62 123.31C118.75 123.39 118.9 123.47 119.06 123.53C119.23 123.59 119.41 123.64 119.6 123.69L120.38 123.88C120.76 123.97 121.11 124.08 121.43 124.22C121.75 124.36 122.02 124.54 122.26 124.74C122.49 124.95 122.67 125.19 122.8 125.47C122.93 125.75 123 126.07 123 126.44C123 126.97 122.86 127.44 122.59 127.83C122.32 128.22 121.94 128.52 121.43 128.74C120.93 128.95 120.32 129.06 119.61 129.06C118.9 129.06 118.29 128.95 117.77 128.74C117.25 128.53 116.84 128.2 116.55 127.78C116.26 127.36 116.11 126.83 116.09 126.2H117.88C117.9 126.49 117.98 126.74 118.13 126.93C118.28 127.12 118.48 127.27 118.73 127.37C118.98 127.47 119.27 127.52 119.58 127.52C119.89 127.52 120.16 127.47 120.4 127.38C120.63 127.29 120.81 127.16 120.94 127C121.07 126.84 121.13 126.65 121.13 126.44C121.13 126.24 121.07 126.08 120.96 125.95C120.85 125.82 120.68 125.7 120.46 125.61C120.24 125.52 119.97 125.43 119.65 125.35L118.7 125.11C117.96 124.93 117.38 124.65 116.96 124.27C116.53 123.89 116.32 123.38 116.32 122.73C116.32 122.2 116.46 121.74 116.74 121.34C117.03 120.95 117.42 120.64 117.92 120.42C118.42 120.2 118.99 120.09 119.63 120.09C120.28 120.09 120.84 120.2 121.33 120.42C121.81 120.64 122.19 120.95 122.46 121.34C122.73 121.74 122.87 122.19 122.88 122.71H121.1V122.72Z" fill="#F3F6FB"/>
<g filter="url(#filter1_d_1512_1856)">
<path d="M123.68 79.2401C115.56 72.6001 114.5 60.4701 121.31 52.1401L147.8 19.7601C148.95 18.3601 150.66 17.5401 152.48 17.5201L173.31 17.3701C173.7 17.3701 173.92 17.8201 173.67 18.1301L123.68 79.2401Z" fill="#F3F6FB"/>
</g>
<g filter="url(#filter2_d_1512_1856)">
<path d="M53.0901 58.4975L70.4901 65.5975C71.5901 60.3975 73.3902 55.3975 76.6902 50.9975C77.3902 50.0975 77.9902 49.2975 78.6902 48.4975L65.6902 34.8975C59.2902 41.5975 55.1901 49.7975 53.0901 58.4975Z" fill="#F3F6FB"/>
</g>
<path d="M171.044 119.09H149.32L149 120.56H170.724L171.044 119.09Z" fill="white"/>
<path d="M171.031 123.69H149.307L149 125.16H170.711L171.031 123.69Z" fill="white"/>
<path d="M171.031 128.29H149.32L149 129.76H170.711L171.031 128.29Z" fill="white"/>
<path d="M22.0441 119H0.319866L0 120.47H21.7242L22.0441 119Z" fill="white"/>
<path d="M22.031 123.6H0.306752L0.000213623 125.07H21.7111L22.031 123.6Z" fill="white"/>
<path d="M22.0311 128.2H0.320171L0.000305176 129.67H21.7112L22.0311 128.2Z" fill="white"/>
<g filter="url(#filter3_d_1512_1856)">
<path d="M46.8903 79.3974C44.1903 82.9974 40.1903 85.9974 35.7903 88.0974L40.6903 105.897C44.3903 104.497 47.9903 102.597 51.2903 100.197C61.3903 92.9974 68.1903 83.4974 69.6903 70.7974C69.8903 69.3974 70.0903 68.0974 70.2903 66.7974L51.4903 68.5974C50.7903 72.4974 49.3903 76.0974 46.8903 79.3974Z" fill="#F3F6FB"/>
</g>
<path d="M114.35 20.9248C114.35 20.3248 114.35 19.7348 114.35 19.0448C114.35 17.9148 113.39 17.0148 112.26 17.0948C108.34 17.3648 104.75 17.5348 101.2 17.9748C70.1803 21.8448 54.0303 42.7948 51.8703 65.9648C51.4203 70.7748 49.8603 75.3548 46.8503 79.4048C40.8003 87.5648 27.8503 92.8348 18.7403 90.5748H0.000305176C0.000305176 96.6548 0.000305176 102.745 0.000305176 108.815C9.2803 108.815 18.3403 109.185 27.3703 108.705C36.0303 108.245 44.1603 105.465 51.2603 100.295C61.3403 92.9448 68.1303 83.5248 69.6503 70.7848C70.5003 63.6448 72.3603 56.8348 76.6803 50.9148C81.3403 44.5348 87.5803 40.6148 95.4103 38.6548V38.6148H114.35" fill="#F3F6FB"/>
<rect x="0.000305176" y="17.0898" width="10" height="25" fill="#F3F6FB"/>
<defs>
<filter id="filter0_ddd_1512_1856" x="31.0901" y="58.0898" width="77" height="64" filterUnits="userSpaceOnUse" color-interpolation-filters="sRGB">
<feFlood flood-opacity="0" result="BackgroundImageFix"/>
<feColorMatrix in="SourceAlpha" type="matrix" values="0 0 0 0 0 0 0 0 0 0 0 0 0 0 0 0 0 0 127 0" result="hardAlpha"/>
<feOffset dy="1"/>
<feGaussianBlur stdDeviation="6"/>
<feColorMatrix type="matrix" values="0 0 0 0 0 0 0 0 0 0 0 0 0 0 0 0 0 0 0.04 0"/>
<feBlend mode="normal" in2="BackgroundImageFix" result="effect1_dropShadow_1512_1856"/>
<feColorMatrix in="SourceAlpha" type="matrix" values="0 0 0 0 0 0 0 0 0 0 0 0 0 0 0 0 0 0 127 0" result="hardAlpha"/>
<feOffset dy="4"/>
<feGaussianBlur stdDeviation="4"/>
<feColorMatrix type="matrix" values="0 0 0 0 0 0 0 0 0 0 0 0 0 0 0 0 0 0 0.08 0"/>
<feBlend mode="normal" in2="effect1_dropShadow_1512_1856" result="effect2_dropShadow_1512_1856"/>
<feColorMatrix in="SourceAlpha" type="matrix" values="0 0 0 0 0 0 0 0 0 0 0 0 0 0 0 0 0 0 127 0" result="hardAlpha"/>
<feOffset dy="3"/>
<feGaussianBlur stdDeviation="3"/>
<feColorMatrix type="matrix" values="0 0 0 0 0 0 0 0 0 0 0 0 0 0 0 0 0 0 0.1 0"/>
<feBlend mode="normal" in2="effect2_dropShadow_1512_1856" result="effect3_dropShadow_1512_1856"/>
<feBlend mode="normal" in="SourceGraphic" in2="effect3_dropShadow_1512_1856" result="shape"/>
</filter>
<filter id="filter1_d_1512_1856" x="98.8226" y="0.370117" width="96.9537" height="101.87" filterUnits="userSpaceOnUse" color-interpolation-filters="sRGB">
<feFlood flood-opacity="0" result="BackgroundImageFix"/>
<feColorMatrix in="SourceAlpha" type="matrix" values="0 0 0 0 0 0 0 0 0 0 0 0 0 0 0 0 0 0 127 0" result="hardAlpha"/>
<feOffset dx="2" dy="3"/>
<feGaussianBlur stdDeviation="10"/>
<feComposite in2="hardAlpha" operator="out"/>
<feColorMatrix type="matrix" values="0 0 0 0 0 0 0 0 0 0 0 0 0 0 0 0 0 0 0.25 0"/>
<feBlend mode="normal" in2="BackgroundImageFix" result="effect1_dropShadow_1512_1856"/>
<feBlend mode="normal" in="SourceGraphic" in2="effect1_dropShadow_1512_1856" result="shape"/>
</filter>
<filter id="filter2_d_1512_1856" x="31.0901" y="11.8975" width="65.6" height="70.7" filterUnits="userSpaceOnUse" color-interpolation-filters="sRGB">
<feFlood flood-opacity="0" result="BackgroundImageFix"/>
<feColorMatrix in="SourceAlpha" type="matrix" values="0 0 0 0 0 0 0 0 0 0 0 0 0 0 0 0 0 0 127 0" result="hardAlpha"/>
<feOffset dx="-2" dy="-3"/>
<feGaussianBlur stdDeviation="10"/>
<feComposite in2="hardAlpha" operator="out"/>
<feColorMatrix type="matrix" values="0 0 0 0 0 0 0 0 0 0 0 0 0 0 0 0 0 0 0.25 0"/>
<feBlend mode="normal" in2="BackgroundImageFix" result="effect1_dropShadow_1512_1856"/>
<feBlend mode="normal" in="SourceGraphic" in2="effect1_dropShadow_1512_1856" result="shape"/>
</filter>
<filter id="filter3_d_1512_1856" x="20.7903" y="51.7974" width="64.5" height="69.1" filterUnits="userSpaceOnUse" color-interpolation-filters="sRGB">
<feFlood flood-opacity="0" result="BackgroundImageFix"/>
<feColorMatrix in="SourceAlpha" type="matrix" values="0 0 0 0 0 0 0 0 0 0 0 0 0 0 0 0 0 0 127 0" result="hardAlpha"/>
<feOffset/>
<feGaussianBlur stdDeviation="7.5"/>
<feComposite in2="hardAlpha" operator="out"/>
<feColorMatrix type="matrix" values="0 0 0 0 0 0 0 0 0 0 0 0 0 0 0 0 0 0 1 0"/>
<feBlend mode="normal" in2="BackgroundImageFix" result="effect1_dropShadow_1512_1856"/>
<feBlend mode="normal" in="SourceGraphic" in2="effect1_dropShadow_1512_1856" result="shape"/>
</filter>
<linearGradient id="paint0_linear_1512_1856" x1="129.844" y1="69.2955" x2="151.918" y2="95.8259" gradientUnits="userSpaceOnUse">
<stop stop-opacity="0.8"/>
<stop offset="1" stop-color="white" stop-opacity="0"/>
<stop offset="1" stop-opacity="0"/>
</linearGradient>
<linearGradient id="paint1_linear_1512_1856" x1="58.0901" y1="46.0898" x2="17.5902" y2="23.5898" gradientUnits="userSpaceOnUse">
<stop stop-opacity="0.8"/>
<stop offset="1" stop-color="#F3F6FB" stop-opacity="0"/>
</linearGradient>
<linearGradient id="paint2_linear_1512_1856" x1="56.0003" y1="81.5898" x2="73.5003" y2="97.0898" gradientUnits="userSpaceOnUse">
<stop/>
<stop offset="1" stop-color="white" stop-opacity="0"/>
</linearGradient>
</defs>
</svg>
