<svg width="44" height="26" viewBox="0 0 44 26" fill="none" xmlns="http://www.w3.org/2000/svg">
<mask id="mask0_700_3678" style="mask-type:alpha" maskUnits="userSpaceOnUse" x="0" y="0" width="44" height="26">
<rect width="44" height="26" fill="#C4C4C4"/>
</mask>
<g mask="url(#mask0_700_3678)">
<path d="M39.2857 0H4.71429C2.11066 0 0 1.74609 0 3.9V22.1C0 24.2539 2.11066 26 4.71429 26H39.2857C41.8893 26 44 24.2539 44 22.1V3.9C44 1.74609 41.8893 0 39.2857 0Z" fill="#0A17A7"/>
<path fill-rule="evenodd" clip-rule="evenodd" d="M46.0153 -2.49139L48.3586 0.382603L33.5113 8.66651L44 8.66665V17.3333L33.5113 17.3323L48.3586 25.6174L46.0153 28.4914L27.2366 18.0122L27.2381 27.7333H16.7619L16.7614 18.0122L-2.0153 28.4914L-4.35858 25.6174L10.4883 17.3323L1.14441e-05 17.3333V8.66665L10.4883 8.66651L-4.35858 0.382603L-2.0153 -2.49139L16.7614 7.9866L16.7619 -1.73335H27.2381L27.2366 7.9866L46.0153 -2.49139Z" fill="white"/>
<path fill-rule="evenodd" clip-rule="evenodd" d="M0 15.6H18.8571V26H25.1429V15.6H44V10.4H25.1429V0H18.8571V10.4H0V15.6Z" fill="#E6273E"/>
</g>
</svg>
